HIERARCHY
ROOT Hips
{
     OFFSET 1.88212 96.90440 -13.34250
     CHANNELS 6 Xposition Yposition Zposition Zrotation Xrotation Yrotation
     JOINT Spine
     {
          OFFSET 0.00000 11.89050 0.00000
          CHANNELS 3 Zrotation Xrotation Yrotation
          JOINT Spine1
          {
               OFFSET -0.00000 25.65740 0.12766
               CHANNELS 3 Zrotation Xrotation Yrotation
               JOINT HEad
               {
                    OFFSET 0.00000 8.73416 0.01134
                    CHANNELS 3 Zrotation Xrotation Yrotation
                    End Site
                    {
                         OFFSET -0.29000 12.77420 2.51395
                    }
               }
               JOINT LeftShoulder1
               {
                    OFFSET 8.99000 -0.36225 -0.22000
                    CHANNELS 3 Zrotation Xrotation Yrotation
                    JOINT LeftArm
                    {
                         OFFSET 10.28270 -0.00338 0.32212
                         CHANNELS 3 Zrotation Xrotation Yrotation
                         JOINT LeftForeArm
                         {
                              OFFSET 32.76690 0.09914 -1.42434
                              CHANNELS 3 Zrotation Xrotation Yrotation
                              JOINT LeftHand
                              {
                                   OFFSET 27.56430 0.08536 1.02216
                                   CHANNELS 3 Zrotation Xrotation Yrotation
                                   End Site
                                   {
                                        OFFSET 16.74430 -0.60000 1.50291
                                   }
                              }
                         }
                    }
               }
               JOINT RightShoulder
               {
                    OFFSET -8.99000 -0.36225 -0.22000
                    CHANNELS 3 Zrotation Xrotation Yrotation
                    JOINT RightArm
                    {
                         OFFSET -10.28270 -0.00338 0.32212
                         CHANNELS 3 Zrotation Xrotation Yrotation
                         JOINT RightForeArm
                         {
                              OFFSET -32.89710 0.09914 -1.42434
                              CHANNELS 3 Zrotation Xrotation Yrotation
                              JOINT RightHand
                              {
                                   OFFSET -27.49210 0.08536 1.02216
                                   CHANNELS 3 Zrotation Xrotation Yrotation
                                   End Site
                                   {
                                        OFFSET -16.63120 -0.60000 1.50291
                                   }
                              }
                         }
                    }
               }
          }
     }
     JOINT LeftUpLeg
     {
          OFFSET 8.94580 -8.66707 0.10165
          CHANNELS 3 Zrotation Xrotation Yrotation
          JOINT LeftLeg
          {
               OFFSET 0.00000 -44.42270 1.37270
               CHANNELS 3 Zrotation Xrotation Yrotation
               JOINT LeftFoot
               {
                    OFFSET -0.25355 -42.09240 -1.46059
                    CHANNELS 3 Zrotation Xrotation Yrotation
                    JOINT LeftToes
                    {
                         OFFSET -0.04000 -4.41509 8.49910
                         CHANNELS 3 Zrotation Xrotation Yrotation
                         End Site
                         {
                              OFFSET 0.08000 -0.04745 9.77979
                         }
                    }
               }
          }
     }
     JOINT RightUpLeg
     {
          OFFSET -8.94580 -8.66707 0.10165
          CHANNELS 3 Zrotation Xrotation Yrotation
          JOINT RightLeg
          {
               OFFSET 0.00000 -44.42270 1.37270
               CHANNELS 3 Zrotation Xrotation Yrotation
               JOINT RightFoot
               {
                    OFFSET 0.25355 -42.09240 -1.46059
                    CHANNELS 3 Zrotation Xrotation Yrotation
                    JOINT RightToes
                    {
                         OFFSET 0.04000 -4.41509 8.49910
                         CHANNELS 3 Zrotation Xrotation Yrotation
                         End Site
                         {
                              OFFSET -0.08000 -0.13745 9.77979
                         }
                    }
               }
          }
     }
}
MOTION
Frames: 15
Frame Time: 0.01667
32.08114 89.21590 344.13284 -10.84608 9.78601 -137.94345 -11.05834 24.58543 0.71498 -0.00367 0.00754 -0.00236 -13.52042 22.07322 14.70789 -3.06921 8.69041 1.21739 -148.31943 -56.65359 -119.47002 -12.47475 67.82523 -105.87424 17.22539 9.03797 -3.27351 14.23831 9.33038 -1.15424 86.06479 -1.43282 76.35302 -13.88769 25.33721 111.53344 14.65811 10.99817 7.14378 18.30342 -7.38105 -21.20872 -25.36484 14.38369 58.59272 -6.39805 -0.00019 0.00036 5.39774 -10.90996 -52.54905 -28.01752 16.29973 18.84163 44.53193 1.73234 -39.63043 4.67485 -0.00262 0.00083 -33.18161 -41.25474 11.43063 
32.20391 89.29927 344.13266 -10.95682 9.49510 -137.91428 -11.31059 24.51832 0.75422 -0.00326 0.00741 -0.00248 -13.44682 21.82104 14.60287 -3.07826 8.58098 1.11953 -148.48196 -56.71104 -119.67550 -12.38731 67.90141 -105.93509 17.32055 8.98798 -3.30390 14.27052 9.19000 -1.23616 86.12462 -1.35392 76.45889 -13.89944 25.40588 111.55333 14.56586 11.01881 7.04264 17.90113 -7.53648 -20.74083 -24.93217 14.58799 58.26065 -6.51824 -0.00048 0.00031 5.48343 -10.42111 -52.60835 -28.13116 15.87810 18.39478 44.37090 2.41061 -39.50077 6.01721 -0.00273 0.00085 -34.48042 -41.33742 11.09234 
32.27541 89.36511 344.16113 -11.04457 9.21566 -137.90334 -11.55418 24.44915 0.80090 -0.00282 0.00727 -0.00267 -13.32753 21.56017 14.45892 -3.04418 8.47420 1.01094 -148.67636 -56.79604 -119.87870 -12.32004 67.96800 -105.95309 17.40356 8.92373 -3.34913 14.35484 9.05254 -1.31051 86.16680 -1.27364 76.52547 -13.95208 25.46443 111.59438 14.46598 11.04417 6.95469 17.49555 -7.68868 -20.31914 -24.56418 14.78616 57.95737 -6.62191 -0.00067 0.00024 5.59094 -10.02718 -52.70737 -28.25391 15.43819 18.03325 44.19392 3.06248 -39.41110 7.38946 -0.00278 0.00086 -35.76980 -41.43576 10.77367 
32.29348 89.41230 344.21970 -11.10470 8.95872 -137.90962 -11.77505 24.38204 0.84966 -0.00239 0.00709 -0.00291 -13.16302 21.28636 14.28876 -2.96997 8.37303 0.88980 -148.91954 -56.90838 -120.10015 -12.30314 68.02945 -105.89922 17.47711 8.85353 -3.41074 14.48518 8.92452 -1.35838 86.19625 -1.21080 76.55489 -14.04502 25.51193 111.66016 14.35972 11.06592 6.86727 17.09205 -7.82767 -19.95031 -24.25597 14.97182 57.67964 -6.70826 -0.00081 0.00016 5.71529 -9.75450 -52.78455 -28.38102 14.98975 17.75726 44.01591 3.67605 -39.36300 8.78074 -0.00275 0.00084 -37.03379 -41.56312 10.51069 
32.25503 89.44347 344.30939 -11.13640 8.73397 -137.93117 -11.96209 24.32207 0.89495 -0.00196 0.00694 -0.00319 -12.95547 20.99808 14.10294 -2.85996 8.27946 0.75736 -149.21364 -57.04547 -120.34551 -12.34694 68.08663 -105.75968 17.53827 8.78623 -3.47875 14.66150 8.81110 -1.36634 86.20985 -1.18000 76.54519 -14.17238 25.54596 111.75301 14.25575 11.07370 6.77230 16.69870 -7.94644 -19.63680 -24.00177 15.13790 57.42995 -6.77664 -0.00090 0.00005 5.84994 -9.61924 -52.81528 -28.51308 14.54599 17.56653 43.84601 4.24188 -39.35595 10.18566 -0.00261 0.00073 -38.26177 -41.73156 10.33031 
32.15830 89.46368 344.43085 -11.14156 8.54897 -137.96507 -12.10728 24.27439 0.93206 -0.00155 0.00682 -0.00340 -12.70911 20.69713 13.90917 -2.72411 8.19502 0.62222 -149.54054 -57.20247 -120.59895 -12.44088 68.13919 -105.54365 17.58179 8.72619 -3.53764 14.87975 8.71481 -1.33391 86.20639 -1.18303 76.49141 -14.32416 25.56407 111.86937 14.16612 11.06396 6.66893 16.32348 -8.03942 -19.37620 -23.79599 15.27815 57.21590 -6.82604 -0.00096 -0.00009 5.99073 -9.63666 -52.81105 -28.65242 14.12146 17.45874 43.68723 4.75140 -39.38649 11.60083 -0.00238 0.00049 -39.44880 -41.93455 10.23811 
32.00400 89.47905 344.58417 -11.12391 8.40859 -138.00795 -12.20586 24.24373 0.95788 -0.00118 0.00675 -0.00349 -12.42966 20.38748 13.71257 -2.57321 8.12157 0.49721 -149.86650 -57.37253 -120.82505 -12.56025 68.18520 -105.27603 17.60427 8.67312 -3.57738 15.13343 8.63612 -1.27592 86.18474 -1.20817 76.38834 -14.48963 25.56453 112.00018 14.10161 11.04131 6.56138 15.97239 -8.10141 -19.16071 -23.63324 15.38744 57.04603 -6.85457 -0.00100 -0.00025 6.13959 -9.81269 -52.80581 -28.80109 13.73061 17.42944 43.53781 5.19489 -39.44738 13.02199 -0.00211 0.00011 -40.59325 -42.14360 10.21325 
31.80256 89.49407 344.77252 -11.09333 8.31704 -138.05580 -12.25555 24.21976 0.98832 -0.00120 0.00743 -0.00330 -12.12258 20.09814 13.50287 -2.70442 8.08605 0.92382 -149.94966 -58.05259 -120.43881 -12.50594 68.34554 -107.54047 17.51908 8.19186 -4.82359 15.40603 8.58695 -1.20676 86.15517 -1.25601 76.24404 -14.66581 25.55362 112.11201 14.06349 11.01507 6.46264 15.64767 -8.12538 -18.97880 -23.50898 15.46225 56.92531 -6.85933 -0.00102 -0.00038 6.29828 -10.14062 -52.83694 -28.96184 13.38793 17.47513 43.39388 5.56151 -39.53001 14.44155 -0.00186 -0.00044 -41.70039 -42.31772 10.21149 
31.56965 89.50987 345.00049 -11.06330 8.27751 -138.10489 -12.26484 24.20762 1.03545 -0.00061 0.00731 -0.00279 -11.79159 19.84378 13.27507 -3.02659 8.08945 1.58722 -150.20982 -59.37703 -119.80436 -11.97702 68.68051 -112.00542 17.07133 8.43869 -3.31694 15.67987 8.56874 -1.12982 86.13274 -1.31883 76.07867 -14.85949 25.54552 112.15679 14.04293 11.00014 6.39199 15.34955 -8.10583 -18.81605 -23.41946 15.50088 56.85338 -6.83703 -0.00104 -0.00046 6.46273 -10.60343 -52.93593 -29.13715 13.10424 17.59396 43.25244 5.84014 -39.62661 15.84850 -0.00174 -0.00110 -42.78437 -42.41058 10.18055 
31.38448 90.55287 345.24310 -11.12198 8.34940 -138.13843 -11.86017 23.78267 0.82356 0.02651 -0.02877 -0.01290 -11.41242 20.07439 13.07412 -1.67902 5.54295 1.90213 -149.69025 -64.16864 -116.80910 -10.03474 69.05461 -120.38691 14.55193 10.50317 -6.17987 18.66298 6.35380 -0.67468 83.39690 -3.44614 73.37655 -13.80673 26.16272 112.49519 7.41046 12.64060 6.40798 14.85997 -8.15313 -18.36378 -22.75522 15.87466 54.97724 -5.22321 0.01871 -0.02939 3.40921 -9.61055 -46.22725 -28.85623 12.67490 17.51652 42.47697 6.75629 -39.10005 17.68523 -0.01413 -0.00217 -39.87834 -38.02786 15.20688 
31.38337 91.32983 345.66351 -11.25810 8.56872 -138.15813 -11.02780 23.01862 0.34704 0.02814 -0.02815 -0.01499 -10.95063 20.69708 12.89349 0.93070 1.44546 1.69636 -147.41432 -71.13834 -111.30470 -6.26466 69.19897 -131.40974 10.70023 13.48687 -9.67707 23.56777 2.77856 0.00618 78.30585 -6.83817 68.94131 -11.60919 27.32359 113.11491 -2.25922 15.29838 5.93825 14.27219 -8.40009 -17.62924 -21.93987 16.80782 51.56865 -3.62054 0.04538 -0.02750 -1.54914 -6.92175 -35.77932 -28.12964 12.07114 17.24015 41.09098 8.21609 -37.96152 19.84869 -0.02823 0.00071 -36.84252 -29.69179 20.17959 
31.51454 92.03149 346.21381 -11.46748 8.89064 -138.19154 -9.80336 21.93981 -0.39282 0.02773 -0.02405 -0.01596 -10.48248 21.70118 12.78091 4.98658 -3.41749 0.77836 -140.33757 -78.84876 -100.50484 -1.94240 68.62795 -142.80205 6.85748 16.28182 -13.04563 29.77630 -1.50412 0.92519 70.90142 -10.72524 63.36601 -8.33539 28.92650 113.84756 -7.45052 16.69267 5.44792 13.61372 -8.94329 -16.58019 -21.25943 18.49752 46.85945 -1.98796 0.06815 -0.02077 -5.61716 -6.01065 -27.17894 -27.05362 11.26056 16.77410 39.14264 10.12868 -36.16007 22.27676 -0.04564 0.00494 -34.30867 -18.87759 23.91640 
31.74501 92.77802 346.89258 -11.70675 9.41214 -138.33740 -7.23011 19.75659 -2.10726 0.08186 -0.06311 -0.05081 -10.18955 23.95215 13.07740 12.99826 -8.91408 -3.65891 -44.77905 -90.00000 0.00000 1.60122 66.98517 -151.31639 2.48827 16.88410 -14.74746 38.71534 -7.00757 2.16959 57.63795 -15.55582 55.68012 -1.90677 31.82400 114.17610 -3.42717 15.23370 3.87002 12.63436 -10.09394 -14.46643 -21.09580 23.15119 38.43721 -5.19682 -0.14909 -0.13422 -1.92044 -7.35132 -22.12198 -24.98704 9.91344 15.55197 35.45462 13.28585 -31.86413 25.67552 -0.12773 0.01813 -36.67405 -19.97810 19.42327 
32.00984 93.59439 347.72061 -11.87255 10.05846 -138.67958 -3.60076 16.67044 -4.59249 0.07346 -0.03985 -0.05140 -10.03528 27.17726 13.71593 20.05163 -12.54039 -9.10143 26.88008 -85.80778 74.40564 4.05598 64.84918 -156.60577 -1.17651 16.37552 -13.93071 46.98494 -11.39131 2.22556 42.63767 -18.67621 50.02537 6.45436 35.46041 113.21522 -6.05150 15.51712 2.65161 11.38077 -11.76624 -11.36300 -19.27382 29.20503 27.99482 -8.78085 -0.25257 -0.10688 -0.38801 -9.42723 -13.49461 -22.16656 8.10221 13.62491 30.07165 17.18842 -24.97528 29.87577 -0.21502 0.05848 -24.70965 -2.71659 16.87494 
32.25471 94.42706 348.69305 -11.86560 10.78152 -139.28532 0.79444 12.91474 -7.71189 0.06124 -0.01233 -0.05227 -10.21666 31.26918 14.76795 17.76359 -8.47443 -8.69185 -38.85746 -90.00000 0.00000 5.29091 62.78464 -158.19698 -4.22403 14.38888 -13.89432 44.48479 -7.32476 1.46680 37.62577 -27.15788 49.66872 15.14346 39.00076 111.36344 -4.07620 14.29509 1.68242 9.82485 -13.77551 -7.43422 -15.00759 35.91745 15.35276 -12.58799 -0.28415 -0.14138 -11.07524 -1.01840 -11.16493 -18.89922 5.77735 11.02947 22.68625 18.76836 -15.87660 19.72372 0.55921 0.08249 -15.89793 -3.78227 8.45035 
